<?xml version="1.0" encoding="utf-8"?>
<!-- Generator: Adobe Illustrator 16.0.0, SVG Export Plug-In . SVG Version: 6.00 Build 0)  -->
<!DOCTYPE svg PUBLIC "-//W3C//DTD SVG 1.1//EN" "http://www.w3.org/Graphics/SVG/1.1/DTD/svg11.dtd">
<svg version="1.1" xmlns="http://www.w3.org/2000/svg" xmlns:xlink="http://www.w3.org/1999/xlink" x="0px" y="0px" width="512px"
	 height="512px" viewBox="0 0 512 512" enable-background="new 0 0 512 512" xml:space="preserve">
<g id="Layer_1">
	<g>
		<rect x="96.353" y="44.41" fill-rule="evenodd" clip-rule="evenodd" fill="#D4D8DD" width="297.712" height="400.167"/>
		<rect x="73.504" y="62.093" fill-rule="evenodd" clip-rule="evenodd" fill="#E9E9EB" width="297.712" height="400.161"/>
		<path fill-rule="evenodd" clip-rule="evenodd" fill="#E9E9EB" d="M235.262,462.25H73.504V262.177h140.322
			c0,0,21.437,0.26,21.437,23.787V462.25z M371.216,285.629v112.807v0.804l-53.78,63.01h-71.881l10.459-26.36l14.95-32.026
			l13.329-15.594l2.961-3.464l0.628-1.54l21.4-25.087l13.321-15.596L371.216,285.629z M266.112,62.089h105.104v146.355
			c-2.832,0.23-5.702,0.346-8.6,0.346c-58.025,0-105.073-47.044-105.073-105.074C257.543,88.921,260.599,74.85,266.112,62.089z"/>
		<path fill-rule="evenodd" clip-rule="evenodd" fill="#ABB0B7" d="M101.515,125.084h243.549v10.315H101.515V125.084z
			 M101.515,100.753h177.609v10.315H101.515V100.753z M101.515,148.68h243.549v10.319H101.515V148.68z"/>
		<path fill-rule="evenodd" clip-rule="evenodd" fill="#ABB0B7" d="M101.515,223.847h243.549v10.319H101.515V223.847z
			 M101.515,199.516h177.609v10.319H101.515V199.516z M101.515,247.447h243.549v10.314H101.515V247.447z"/>
		<path fill-rule="evenodd" clip-rule="evenodd" fill="#ABB0B7" d="M101.515,316.699h243.549v10.315H101.515V316.699z
			 M101.515,292.368h177.609v10.315H101.515V292.368z M101.515,340.295h243.549v10.314H101.515V340.295z"/>
		<path opacity="0.15" fill-rule="evenodd" clip-rule="evenodd" fill="#272323" d="M235.262,462.25H73.504V262.177h140.322
			c0,0,21.437,0.26,21.437,23.787V462.25z M266.112,62.089h105.104v146.355c-2.832,0.23-5.702,0.346-8.6,0.346
			c-58.025,0-105.073-47.044-105.073-105.074C257.543,88.921,260.599,74.85,266.112,62.089z M371.216,398.436v0.804l-53.78,63.01
			h-71.881l10.459-26.36l14.95-32.026l13.329-15.594l2.961-3.464l0.628-1.54l21.4-25.087l13.321-15.596l48.612-56.954V398.436z"/>
		<path fill-rule="evenodd" clip-rule="evenodd" fill="#2B67B0" d="M278.518,409.981c0,0,29.324-0.451,41.801,35.691L453.05,290.177
			l25.106-29.398c13.84-16.211,4.887-23.834,4.887-23.834l-11.965-10.214l-11.967-10.211c0,0-8.924-7.647-22.771,8.571l-4.1,4.819
			L304.591,379.443l-10.006,11.717L278.518,409.981z"/>
		<path fill-rule="evenodd" clip-rule="evenodd" fill="#E9E9EB" d="M320.318,445.672c-12.477-36.142-41.801-35.691-41.801-35.691
			l-33.084,81.08l54.868-33.255l16.168-9.803L320.318,445.672z"/>
		<path fill-rule="evenodd" clip-rule="evenodd" fill="#E4B14B" d="M364.975,308.713c17.168,8.167,31.009,20.172,41.395,36.149
			l11.613-13.603c-10.293-16.092-24.018-28.224-41.102-36.502L364.975,308.713z M371.879,385.274
			c-10.278-16.551-23.766-28.958-40.387-37.353l-12.009,14.085c16.845,8.127,30.54,20.288,41.028,36.574L371.879,385.274z"/>
		<path opacity="0.25" fill-rule="evenodd" clip-rule="evenodd" fill="#272323" d="M245.434,491.061l60.108-69.27l0.944,0.865
			l0.139,0.108c2.816,2.196,11.243,6.229,25.45-8.271c17.776-18.161,143.162-164.992,143.162-164.992s6.228-12.862-8.5-26.457
			l4.341,3.687l11.965,10.214c0,0,8.953,7.623-4.887,23.834l-25.106,29.398L320.318,445.672c-5.484,6.433-10.105,8.677-13.58,8.224
			l-6.437,3.91L245.434,491.061z"/>
		<path fill-rule="evenodd" clip-rule="evenodd" fill="#383E4F" d="M40.59,272.474h170.106c7.958,0,14.475,6.513,14.475,14.474
			v202.579c0,7.964-6.517,14.474-14.475,14.474H40.59c-7.964,0-14.481-6.509-14.481-14.474V286.948
			C26.109,278.986,32.626,272.474,40.59,272.474"/>
		<path opacity="0.19" fill-rule="evenodd" clip-rule="evenodd" fill="#272323" d="M225.171,286.948v202.579
			c0,7.975-6.509,14.474-14.475,14.474H40.59c-3.74,0-7.157-1.427-9.73-3.78C184.12,474.436,225.171,286.948,225.171,286.948"/>
		<rect x="41.917" y="291.702" fill-rule="evenodd" clip-rule="evenodd" fill="#8BC15C" width="167.958" height="74.641"/>
		<rect x="41.917" y="291.702" fill-rule="evenodd" clip-rule="evenodd" fill="#499B5A" width="167.958" height="10.978"/>
		<path opacity="0.15" fill-rule="evenodd" clip-rule="evenodd" fill="#272323" d="M209.875,291.702v74.641H62.107
			C171.138,362.299,209.875,291.702,209.875,291.702"/>
		<rect x="129.454" y="373.002" fill-rule="evenodd" clip-rule="evenodd" fill="#628892" width="78.036" height="55.979"/>
		<rect x="43.728" y="436.564" fill-rule="evenodd" clip-rule="evenodd" fill="#628892" width="78.035" height="55.979"/>
		<rect x="43.728" y="373.002" fill-rule="evenodd" clip-rule="evenodd" fill="#628892" width="78.035" height="55.979"/>
		<rect x="129.454" y="436.564" fill-rule="evenodd" clip-rule="evenodd" fill="#EB7113" width="78.036" height="55.979"/>
		<path fill="#E9E9EB" d="M98.494,412.896c1.053,1.06,1.053,2.785,0,3.845c-1.06,1.056-2.79,1.056-3.85,0l-11.9-11.904
			l-11.908,11.904c-1.06,1.056-2.782,1.056-3.842,0c-1.059-1.06-1.059-2.786,0-3.845l11.901-11.905l-11.901-11.904
			c-1.059-1.06-1.059-2.786,0-3.846c1.06-1.055,2.782-1.055,3.842,0l11.908,11.904l11.9-11.904c1.06-1.055,2.79-1.055,3.85,0
			c1.053,1.06,1.053,2.787,0,3.846l-11.907,11.904L98.494,412.896z"/>
		<path fill="#E9E9EB" d="M175.037,414.817c0,1.496-1.225,2.718-2.717,2.718c-1.5,0-2.716-1.223-2.716-2.718v-11.107h-11.743
			c-1.5,0-2.725-1.221-2.725-2.718c0-1.496,1.225-2.717,2.725-2.717h11.743v-11.108c0-1.496,1.217-2.717,2.716-2.717
			c1.492,0,2.717,1.222,2.717,2.717v11.108h11.318c1.5,0,2.718,1.222,2.718,2.717c0,1.497-1.218,2.718-2.718,2.718h-11.318V414.817z
			"/>
		<path fill="#E9E9EB" d="M67.527,467.812c-1.325,0-2.414-1.46-2.414-3.254c0-1.799,1.089-3.259,2.414-3.259h30.426
			c1.334,0,2.416,1.459,2.416,3.259c0,1.794-1.082,3.254-2.416,3.254H67.527z"/>
		<path fill="#E9E9EB" d="M153.262,474.241c-1.333,0-2.421-1.463-2.421-3.259c0-1.794,1.088-3.253,2.421-3.253h30.419
			c1.333,0,2.422,1.459,2.422,3.253c0,1.796-1.089,3.259-2.422,3.259H153.262z M153.262,461.381c-1.333,0-2.421-1.458-2.421-3.254
			c0-1.798,1.088-3.258,2.421-3.258h30.419c1.333,0,2.422,1.46,2.422,3.258c0,1.796-1.089,3.254-2.422,3.254H153.262z"/>
		<path fill-rule="evenodd" clip-rule="evenodd" fill="#F3BE53" d="M329.769,13.838c49.636-18.136,104.584,7.396,122.718,57.034
			c18.145,49.639-7.396,104.58-57.029,122.719c-49.635,18.139-104.583-7.392-122.72-57.031
			C254.595,86.921,280.132,31.977,329.769,13.838"/>
		<path fill-rule="evenodd" clip-rule="evenodd" fill="#FBC959" d="M331.736,19.233c46.66-17.051,98.313,6.948,115.36,53.611
			c17.054,46.658-6.948,98.305-53.614,115.355c-46.652,17.052-98.307-6.952-115.354-53.61
			C261.076,87.93,285.078,36.284,331.736,19.233"/>
		<path fill-rule="evenodd" clip-rule="evenodd" fill="#F3BE53" d="M337.229,34.251c38.362-14.02,80.826,5.719,94.847,44.082
			c14.02,38.362-5.717,80.829-44.079,94.849c-38.361,14.016-80.832-5.717-94.846-44.082C279.13,90.737,298.868,48.27,337.229,34.251
			"/>
		<path fill="#E4B14B" d="M380.709,136.831c3.336-2.097,5.659-4.887,6.956-8.368c1.318-3.475,1.312-7.003-0.007-10.625
			c-1.168-3.197-3.137-5.626-5.898-7.245c-2.752-1.65-6.515-2.288-11.336-1.964L380.709,136.831z M342.246,63.905
			c-2.459,2.037-4.081,4.487-4.88,7.392c-0.808,2.916-0.7,5.735,0.316,8.517c0.923,2.526,2.53,4.625,4.822,6.264
			c2.293,1.625,5.255,2.559,8.837,2.76L342.246,63.905z M369.804,139.44l-10.994-30.124c-10.349,0.718-18.69-0.857-25.039-4.714
			c-6.366-3.878-10.958-9.67-13.791-17.438c-2.868-7.871-2.804-15.381,0.194-22.506c2.992-7.151,8.449-12.597,16.37-16.381
			l-2.58-7.085l10.479-3.792l2.581,7.085c8.016-1.877,15.073-1.473,21.191,1.183c6.1,2.663,11.095,7.37,14.979,14.113l-17.443,8.989
			c-3.199-5.251-7.496-8.03-12.917-8.354l10.253,28.101c12.728-1.103,22.105,0.097,28.095,3.525
			c6.013,3.449,10.432,9.064,13.263,16.831c3.165,8.675,3.202,16.935,0.08,24.792c-3.127,7.864-9.117,14.204-17.997,19.095
			l4.893,13.422l-10.48,3.791l-4.845-13.278c-8.642,1.986-16.462,1.363-23.534-1.892c-7.07-3.265-13.018-9.35-17.883-18.19
			l17.94-8.992c2.163,3.554,4.815,6.326,7.944,8.336C363.697,137.977,366.753,139.123,369.804,139.44z"/>
	</g>
</g>
<g id="Layer_2">
</g>
</svg>
